<svg width="1862" height="719" viewBox="0 0 1862 719" fill="none" xmlns="http://www.w3.org/2000/svg">
<g clip-path="url(#clip0_35_107)">
<mask id="mask0_35_107" style="mask-type:alpha" maskUnits="userSpaceOnUse" x="25" y="71" width="526" height="577">
<path d="M237.805 85.2343C268.607 67.4551 306.556 67.4551 337.357 85.2343L500.268 179.27C531.069 197.049 550.044 229.906 550.044 265.465V453.535C550.044 489.094 531.069 521.951 500.268 539.73L337.357 633.765C306.556 651.545 268.607 651.545 237.805 633.766L74.8949 539.73C44.0934 521.951 25.1189 489.094 25.1189 453.535V265.465C25.1189 229.906 44.0934 197.049 74.8949 179.27L237.805 85.2343Z" fill="#C4C4C4"/>
</mask>
<g mask="url(#mask0_35_107)">
<rect width="332.185" height="332.185" transform="matrix(0.866074 0.499916 -0.866074 0.499916 287.586 51.5627)" fill="#F5F5F5"/>
<rect width="305.656" height="305.604" transform="matrix(0.866074 0.499916 -2.20355e-08 1 22.855 220.03)" fill="#E1E1E1"/>
<rect width="305.656" height="305.604" transform="matrix(0.866074 -0.499916 2.20355e-08 1 287.586 372.874)" fill="#BCBCBC"/>
</g>
</g>
<path d="M753.84 209.9H650.195V123.543H955.534V209.9H852.219V558.624H753.84V209.9ZM1096.06 471.938L1169.1 288.017H1267.16L1081.58 695.741H981.559L1044.07 558.624L931.217 288.017H1030.91L1096.06 471.938ZM1389.98 558.624H1289.96V288.017H1389.98V329.877H1388.34C1390.09 324.823 1394.37 318.451 1401.17 310.76C1407.97 302.849 1417.51 295.818 1429.8 289.665C1442.08 283.293 1457.1 280.107 1474.87 280.107C1487.38 280.107 1498.89 282.084 1509.42 286.04C1519.95 289.775 1527.63 293.401 1532.45 296.917L1493.63 378.329C1490.56 374.594 1485.07 370.748 1477.18 366.793C1469.5 362.618 1459.85 360.531 1448.22 360.531C1434.84 360.531 1423.76 363.937 1414.99 370.748C1406.43 377.56 1400.07 385.8 1395.91 395.469C1391.96 405.137 1389.98 414.257 1389.98 422.826V558.624ZM1761.95 558.624V514.787C1759.97 519.181 1754.93 525.554 1746.81 533.904C1738.91 542.254 1728.38 549.835 1715.22 556.647C1702.06 563.239 1686.71 566.535 1669.16 566.535C1642.84 566.535 1619.8 560.162 1600.06 547.418C1580.32 534.453 1564.97 517.204 1554 495.669C1543.03 473.915 1537.55 449.854 1537.55 423.485C1537.55 397.117 1543.03 373.166 1554 351.631C1564.97 329.877 1580.32 312.518 1600.06 299.553C1619.8 286.589 1642.84 280.107 1669.16 280.107C1686.05 280.107 1700.86 282.853 1713.58 288.347C1726.3 293.62 1736.61 299.993 1744.51 307.464C1752.4 314.715 1757.89 321.417 1760.96 327.57V288.017H1860.32V558.624H1761.95ZM1635.6 423.485C1635.6 435.791 1638.45 446.888 1644.15 456.776C1649.86 466.444 1657.42 474.025 1666.86 479.519C1676.51 485.012 1687.15 487.759 1698.77 487.759C1710.84 487.759 1721.47 485.012 1730.69 479.519C1739.9 474.025 1747.14 466.444 1752.4 456.776C1757.89 446.888 1760.63 435.791 1760.63 423.485C1760.63 411.18 1757.89 400.193 1752.4 390.525C1747.14 380.637 1739.9 372.946 1730.69 367.452C1721.47 361.739 1710.84 358.883 1698.77 358.883C1687.15 358.883 1676.51 361.739 1666.86 367.452C1657.42 372.946 1649.86 380.637 1644.15 390.525C1638.45 400.193 1635.6 411.18 1635.6 423.485Z" fill="#F5F5F5"/>
<path d="M929.75 123.545H1537.96V209.91H929.75V123.545Z" fill="#F5F5F5"/>
<path d="M1712.44 123.655L1860.41 123.655V209.041H1712.44V123.655Z" fill="#F5F5F5"/>
<path d="M1214.52 601.041C1214.3 601.426 1214.06 601.709 1213.8 601.893C1213.56 602.057 1213.26 602.14 1212.9 602.14C1212.51 602.14 1212.09 602.002 1211.63 601.728C1211.2 601.435 1210.67 601.114 1210.04 600.766C1209.42 600.418 1208.69 600.107 1207.85 599.833C1207.03 599.539 1206.05 599.393 1204.92 599.393C1203.89 599.393 1203 599.521 1202.23 599.778C1201.46 600.016 1200.81 600.354 1200.28 600.794C1199.77 601.233 1199.38 601.764 1199.13 602.387C1198.88 602.991 1198.75 603.659 1198.75 604.392C1198.75 605.326 1199 606.104 1199.51 606.727C1200.04 607.35 1200.74 607.88 1201.6 608.32C1202.46 608.759 1203.44 609.153 1204.53 609.501C1205.63 609.849 1206.75 610.224 1207.9 610.627C1209.06 611.012 1210.18 611.47 1211.28 612C1212.38 612.513 1213.35 613.173 1214.21 613.978C1215.07 614.766 1215.76 615.736 1216.27 616.89C1216.8 618.043 1217.06 619.442 1217.06 621.09C1217.06 622.887 1216.75 624.57 1216.13 626.144C1215.53 627.702 1214.63 629.065 1213.44 630.239C1212.27 631.392 1210.84 632.306 1209.14 632.985C1207.44 633.645 1205.49 633.974 1203.3 633.974C1202.04 633.974 1200.8 633.844 1199.57 633.59C1198.34 633.35 1197.17 633.005 1196.03 632.546C1194.92 632.087 1193.87 631.537 1192.88 630.898C1191.89 630.259 1191.01 629.545 1190.25 628.755L1192.42 625.21C1192.59 624.955 1192.83 624.745 1193.13 624.58C1193.42 624.396 1193.73 624.306 1194.06 624.306C1194.51 624.306 1195.01 624.496 1195.54 624.88C1196.07 625.25 1196.7 625.659 1197.43 626.119C1198.16 626.578 1199.01 626.998 1199.98 627.382C1200.97 627.747 1202.15 627.931 1203.52 627.931C1205.62 627.931 1207.25 627.437 1208.4 626.448C1209.55 625.439 1210.13 624.001 1210.13 622.133C1210.13 621.09 1209.86 620.241 1209.33 619.581C1208.82 618.922 1208.13 618.373 1207.28 617.933C1206.41 617.475 1205.44 617.091 1204.34 616.78C1203.24 616.469 1202.13 616.13 1201 615.763C1199.86 615.397 1198.75 614.958 1197.65 614.445C1196.55 613.932 1195.58 613.264 1194.72 612.44C1193.86 611.616 1193.16 610.591 1192.63 609.364C1192.12 608.119 1191.87 606.589 1191.87 604.777C1191.87 603.33 1192.15 601.92 1192.71 600.547C1193.3 599.173 1194.14 597.956 1195.24 596.894C1196.33 595.831 1197.68 594.98 1199.3 594.339C1200.91 593.698 1202.75 593.378 1204.83 593.378C1207.17 593.378 1209.33 593.744 1211.3 594.476C1213.28 595.209 1214.96 596.234 1216.35 597.553L1214.52 601.041ZM1234.77 604.914C1236.85 604.914 1238.74 605.253 1240.44 605.93C1242.16 606.608 1243.62 607.569 1244.83 608.814C1246.06 610.059 1247 611.579 1247.66 613.374C1248.32 615.168 1248.64 617.173 1248.64 619.387C1248.64 621.624 1248.32 623.637 1247.66 625.429C1247 627.227 1246.06 628.755 1244.83 630.019C1243.62 631.282 1242.16 632.251 1240.44 632.93C1238.74 633.61 1236.85 633.949 1234.77 633.949C1232.67 633.949 1230.76 633.61 1229.04 632.93C1227.32 632.251 1225.85 631.282 1224.63 630.019C1223.42 628.755 1222.48 627.227 1221.8 625.429C1221.14 623.637 1220.81 621.624 1220.81 619.387C1220.81 617.173 1221.14 615.168 1221.8 613.374C1222.48 611.579 1223.42 610.059 1224.63 608.814C1225.85 607.569 1227.32 606.608 1229.04 605.93C1230.76 605.253 1232.67 604.914 1234.77 604.914ZM1234.77 628.726C1237.11 628.726 1238.83 627.941 1239.95 626.363C1241.08 624.79 1241.65 622.483 1241.65 619.442C1241.65 616.404 1241.08 614.088 1239.95 612.495C1238.83 610.902 1237.11 610.105 1234.77 610.105C1232.39 610.105 1230.63 610.911 1229.48 612.522C1228.34 614.115 1227.78 616.423 1227.78 619.442C1227.78 622.463 1228.34 624.77 1229.48 626.363C1230.63 627.941 1232.39 628.726 1234.77 628.726ZM1260.66 592.719V633.535H1253.89V592.719H1260.66ZM1291.65 605.353V633.535H1287.51C1286.61 633.535 1286.05 633.12 1285.81 632.296L1285.35 630.044C1284.19 631.218 1282.92 632.171 1281.53 632.901C1280.14 633.615 1278.51 633.974 1276.63 633.974C1275.09 633.974 1273.73 633.72 1272.54 633.205C1271.37 632.676 1270.38 631.932 1269.58 630.978C1268.78 630.029 1268.16 628.9 1267.74 627.602C1267.34 626.283 1267.14 624.835 1267.14 623.262V605.353H1273.91V623.262C1273.91 624.985 1274.3 626.318 1275.09 627.272C1275.89 628.206 1277.09 628.671 1278.68 628.671C1279.85 628.671 1280.95 628.416 1281.97 627.902C1282.99 627.372 1283.97 626.648 1284.88 625.734V605.353H1291.65ZM1320.58 629.33C1319.33 630.798 1317.93 631.877 1316.35 632.571C1314.8 633.25 1313.19 633.675 1311.53 633.839L1311.17 635.213C1312.89 635.612 1314.09 636.152 1314.76 636.831C1315.46 637.525 1315.81 638.349 1315.81 639.303C1315.81 639.927 1315.64 640.486 1315.31 640.981C1315 641.475 1314.55 641.895 1313.94 642.244C1313.35 642.589 1312.65 642.854 1311.83 643.038C1311.03 643.223 1310.13 643.313 1309.14 643.313C1308.39 643.313 1307.69 643.258 1307.03 643.148C1306.37 643.058 1305.73 642.909 1305.11 642.709L1305.72 640.591C1305.83 640.172 1306.09 639.962 1306.51 639.962C1306.76 639.962 1307.05 640.027 1307.36 640.157C1307.67 640.302 1308.12 640.377 1308.7 640.377C1309.31 640.377 1309.75 640.257 1310.05 640.017C1310.36 639.797 1310.51 639.523 1310.51 639.193C1310.51 638.664 1310.18 638.279 1309.52 638.039C1308.87 637.82 1307.85 637.61 1306.48 637.41L1307.69 633.809C1306.15 633.59 1304.73 633.115 1303.41 632.381C1302.1 631.632 1300.95 630.648 1299.98 629.44C1299.02 628.216 1298.25 626.758 1297.68 625.075C1297.13 623.392 1296.86 621.494 1296.86 619.387C1296.86 617.32 1297.15 615.406 1297.73 613.648C1298.34 611.872 1299.22 610.343 1300.37 609.061C1301.52 607.762 1302.94 606.745 1304.64 606.013C1306.34 605.28 1308.3 604.914 1310.51 604.914C1312.62 604.914 1314.45 605.253 1316.03 605.93C1317.62 606.608 1319.04 607.578 1320.3 608.842L1318.52 611.314C1318.32 611.57 1318.11 611.772 1317.92 611.918C1317.73 612.064 1317.46 612.138 1317.09 612.138C1316.74 612.138 1316.41 612.037 1316.08 611.836C1315.75 611.616 1315.36 611.378 1314.9 611.122C1314.44 610.847 1313.89 610.609 1313.25 610.407C1312.63 610.188 1311.86 610.078 1310.93 610.078C1309.73 610.078 1308.69 610.297 1307.8 610.737C1306.9 611.158 1306.15 611.772 1305.55 612.577C1304.96 613.383 1304.52 614.363 1304.24 615.516C1303.94 616.651 1303.8 617.942 1303.8 619.387C1303.8 620.89 1303.95 622.228 1304.26 623.397C1304.59 624.57 1305.06 625.559 1305.66 626.363C1306.26 627.152 1306.99 627.757 1307.85 628.176C1308.71 628.581 1309.68 628.78 1310.76 628.78C1311.84 628.78 1312.71 628.656 1313.36 628.396C1314.04 628.121 1314.6 627.832 1315.06 627.517C1315.52 627.187 1315.92 626.898 1316.25 626.638C1316.59 626.363 1316.97 626.229 1317.4 626.229C1317.95 626.229 1318.35 626.438 1318.63 626.858L1320.58 629.33ZM1336.84 604.914C1338.92 604.914 1340.82 605.253 1342.52 605.93C1344.23 606.608 1345.7 607.569 1346.9 608.814C1348.13 610.059 1349.07 611.579 1349.73 613.374C1350.38 615.168 1350.71 617.173 1350.71 619.387C1350.71 621.624 1350.38 623.637 1349.73 625.429C1349.07 627.227 1348.13 628.755 1346.9 630.019C1345.7 631.282 1344.23 632.251 1342.52 632.93C1340.82 633.61 1338.92 633.949 1336.84 633.949C1334.74 633.949 1332.83 633.61 1331.11 632.93C1329.39 632.251 1327.92 631.282 1326.69 630.019C1325.49 628.755 1324.55 627.227 1323.87 625.429C1323.21 623.637 1322.89 621.624 1322.89 619.387C1322.89 617.173 1323.21 615.168 1323.87 613.374C1324.55 611.579 1325.49 610.059 1326.69 608.814C1327.92 607.569 1329.39 606.608 1331.11 605.93C1332.83 605.253 1334.74 604.914 1336.84 604.914ZM1336.84 628.726C1339.18 628.726 1340.91 627.941 1342.02 626.363C1343.16 624.79 1343.72 622.483 1343.72 619.442C1343.72 616.404 1343.16 614.088 1342.02 612.495C1340.91 610.902 1339.18 610.105 1336.84 610.105C1334.47 610.105 1332.7 610.911 1331.55 612.522C1330.41 614.115 1329.85 616.423 1329.85 619.442C1329.85 622.463 1330.41 624.77 1331.55 626.363C1332.7 627.941 1334.47 628.726 1336.84 628.726ZM1339.78 596.207C1340.32 596.207 1340.75 596.06 1341.06 595.767C1341.38 595.456 1341.53 594.907 1341.53 594.119H1345.64C1345.64 595.145 1345.49 596.078 1345.2 596.921C1344.93 597.745 1344.55 598.459 1344.05 599.063C1343.56 599.649 1342.97 600.107 1342.27 600.437C1341.6 600.748 1340.84 600.904 1340.02 600.904C1339.36 600.904 1338.75 600.785 1338.19 600.547C1337.62 600.308 1337.09 600.052 1336.6 599.778C1336.1 599.503 1335.63 599.247 1335.19 599.008C1334.78 598.77 1334.38 598.651 1334.02 598.651C1333.48 598.651 1333.07 598.816 1332.76 599.146C1332.46 599.457 1332.32 599.997 1332.32 600.766H1328.12C1328.12 599.741 1328.26 598.816 1328.53 597.992C1328.82 597.15 1329.23 596.436 1329.74 595.85C1330.25 595.245 1330.85 594.779 1331.52 594.449C1332.22 594.119 1332.97 593.955 1333.77 593.955C1334.43 593.955 1335.04 594.073 1335.61 594.312C1336.19 594.55 1336.73 594.806 1337.22 595.081C1337.72 595.355 1338.18 595.612 1338.59 595.85C1339.02 596.088 1339.41 596.207 1339.78 596.207ZM1374 616.203C1374 615.324 1373.88 614.5 1373.62 613.731C1373.38 612.943 1373.02 612.257 1372.52 611.671C1372.03 611.085 1371.4 610.627 1370.63 610.298C1369.88 609.949 1369 609.776 1368 609.776C1366.04 609.776 1364.5 610.334 1363.37 611.451C1362.25 612.568 1361.54 614.152 1361.23 616.203H1374ZM1361.09 620.296C1361.2 621.744 1361.46 622.997 1361.86 624.056C1362.26 625.1 1362.79 625.974 1363.45 626.668C1364.11 627.347 1364.88 627.857 1365.78 628.206C1366.69 628.536 1367.7 628.701 1368.8 628.701C1369.89 628.701 1370.83 628.571 1371.62 628.316C1372.42 628.061 1373.12 627.777 1373.71 627.462C1374.31 627.152 1374.83 626.868 1375.27 626.613C1375.72 626.358 1376.16 626.229 1376.58 626.229C1377.15 626.229 1377.57 626.438 1377.84 626.858L1379.79 629.33C1379.04 630.209 1378.2 630.953 1377.27 631.557C1376.34 632.141 1375.36 632.621 1374.33 632.985C1373.33 633.335 1372.29 633.58 1371.24 633.73C1370.2 633.874 1369.18 633.949 1368.19 633.949C1366.24 633.949 1364.42 633.625 1362.74 632.985C1361.05 632.326 1359.59 631.362 1358.35 630.099C1357.1 628.82 1356.13 627.242 1355.41 625.375C1354.7 623.492 1354.35 621.309 1354.35 618.837C1354.35 616.917 1354.66 615.113 1355.28 613.429C1355.9 611.726 1356.79 610.252 1357.94 609.007C1359.11 607.743 1360.52 606.745 1362.19 606.013C1363.87 605.28 1365.76 604.914 1367.86 604.914C1369.64 604.914 1371.27 605.198 1372.77 605.765C1374.27 606.333 1375.56 607.166 1376.64 608.265C1377.71 609.345 1378.56 610.682 1379.16 612.275C1379.78 613.85 1380.09 615.654 1380.09 617.686C1380.09 618.712 1379.98 619.407 1379.76 619.771C1379.54 620.121 1379.12 620.296 1378.5 620.296H1361.09ZM1402.34 610.847C1402.16 611.14 1401.96 611.35 1401.76 611.479C1401.56 611.588 1401.3 611.643 1401 611.643C1400.67 611.643 1400.31 611.552 1399.93 611.369C1399.56 611.185 1399.13 610.984 1398.64 610.764C1398.14 610.526 1397.58 610.316 1396.94 610.133C1396.31 609.949 1395.58 609.858 1394.72 609.858C1393.38 609.858 1392.33 610.142 1391.56 610.709C1390.82 611.277 1390.44 612.019 1390.44 612.934C1390.44 613.539 1390.63 614.052 1391.01 614.473C1391.42 614.876 1391.94 615.233 1392.58 615.544C1393.24 615.855 1393.98 616.139 1394.8 616.395C1395.62 616.633 1396.45 616.899 1397.3 617.192C1398.15 617.485 1399 617.824 1399.82 618.208C1400.64 618.573 1401.37 619.052 1402.01 619.636C1402.67 620.206 1403.19 620.89 1403.57 621.694C1403.98 622.503 1404.18 623.472 1404.18 624.605C1404.18 625.964 1403.93 627.217 1403.44 628.371C1402.96 629.505 1402.25 630.493 1401.3 631.337C1400.35 632.161 1399.17 632.811 1397.76 633.285C1396.37 633.745 1394.76 633.974 1392.93 633.974C1391.97 633.974 1391.01 633.884 1390.08 633.7C1389.17 633.535 1388.28 633.295 1387.43 632.985C1386.58 632.676 1385.79 632.306 1385.07 631.887C1384.35 631.467 1383.72 631.008 1383.17 630.513L1384.74 627.931C1384.94 627.622 1385.18 627.382 1385.45 627.217C1385.73 627.053 1386.07 626.968 1386.49 626.968C1386.91 626.968 1387.31 627.087 1387.67 627.327C1388.05 627.567 1388.49 627.822 1388.99 628.096C1389.48 628.371 1390.06 628.626 1390.72 628.865C1391.39 629.105 1392.24 629.22 1393.26 629.22C1394.07 629.22 1394.75 629.13 1395.32 628.945C1395.91 628.745 1396.38 628.491 1396.75 628.176C1397.13 627.867 1397.41 627.512 1397.57 627.107C1397.75 626.688 1397.84 626.253 1397.84 625.814C1397.84 625.155 1397.64 624.615 1397.24 624.196C1396.86 623.776 1396.33 623.407 1395.68 623.097C1395.04 622.788 1394.29 622.513 1393.46 622.273C1392.63 622.019 1391.78 621.744 1390.9 621.449C1390.05 621.155 1389.19 620.815 1388.36 620.43C1387.53 620.031 1386.79 619.526 1386.13 618.922C1385.5 618.318 1384.97 617.576 1384.57 616.697C1384.19 615.818 1384 614.756 1384 613.511C1384 612.358 1384.22 611.259 1384.68 610.215C1385.14 609.171 1385.8 608.265 1386.68 607.496C1387.58 606.708 1388.69 606.086 1390 605.628C1391.33 605.152 1392.87 604.914 1394.61 604.914C1396.54 604.914 1398.31 605.235 1399.9 605.875C1401.49 606.516 1402.81 607.359 1403.88 608.402L1402.34 610.847ZM1429.38 626.229C1430.15 627.162 1430.98 627.822 1431.87 628.206C1432.79 628.591 1433.78 628.78 1434.84 628.78C1435.86 628.78 1436.78 628.591 1437.61 628.206C1438.43 627.822 1439.12 627.237 1439.69 626.448C1440.27 625.659 1440.72 624.67 1441.03 623.482C1441.35 622.273 1441.5 620.855 1441.5 619.222C1441.5 617.576 1441.36 616.184 1441.09 615.049C1440.83 613.896 1440.46 612.962 1439.97 612.248C1439.47 611.534 1438.87 611.012 1438.16 610.682C1437.46 610.352 1436.66 610.188 1435.77 610.188C1434.36 610.188 1433.17 610.49 1432.18 611.094C1431.19 611.68 1430.26 612.513 1429.38 613.594V626.229ZM1429.02 609.199C1430.17 607.899 1431.49 606.846 1432.95 606.04C1434.41 605.235 1436.13 604.832 1438.1 604.832C1439.64 604.832 1441.03 605.152 1442.29 605.793C1443.57 606.434 1444.67 607.367 1445.58 608.595C1446.52 609.803 1447.23 611.305 1447.72 613.099C1448.24 614.876 1448.49 616.917 1448.49 619.222C1448.49 621.329 1448.21 623.282 1447.64 625.075C1447.07 626.868 1446.26 628.426 1445.2 629.744C1444.16 631.063 1442.89 632.096 1441.39 632.846C1439.91 633.58 1438.25 633.949 1436.4 633.949C1434.83 633.949 1433.48 633.71 1432.37 633.23C1431.26 632.736 1430.26 632.062 1429.38 631.198V642.739H1422.61V605.353H1426.75C1427.63 605.353 1428.2 605.765 1428.47 606.589L1429.02 609.199ZM1468.64 621.504C1466.68 621.594 1465.04 621.769 1463.7 622.024C1462.37 622.263 1461.3 622.573 1460.49 622.957C1459.69 623.342 1459.11 623.791 1458.76 624.306C1458.42 624.82 1458.25 625.375 1458.25 625.979C1458.25 627.172 1458.6 628.021 1459.29 628.536C1460 629.05 1460.92 629.305 1462.05 629.305C1463.45 629.305 1464.64 629.055 1465.65 628.561C1466.67 628.051 1467.67 627.282 1468.64 626.253V621.504ZM1453.12 609.281C1456.35 606.315 1460.25 604.832 1464.8 604.832C1466.44 604.832 1467.92 605.106 1469.21 605.656C1470.51 606.186 1471.61 606.938 1472.5 607.908C1473.4 608.86 1474.07 610.004 1474.53 611.341C1475.01 612.678 1475.25 614.143 1475.25 615.736V633.535H1472.17C1471.54 633.535 1471.04 633.445 1470.69 633.26C1470.35 633.06 1470.07 632.666 1469.87 632.077L1469.27 630.044C1468.56 630.688 1467.86 631.252 1467.18 631.747C1466.51 632.226 1465.8 632.626 1465.07 632.955C1464.34 633.285 1463.56 633.535 1462.71 633.7C1461.89 633.884 1460.98 633.974 1459.97 633.974C1458.78 633.974 1457.69 633.819 1456.68 633.505C1455.68 633.175 1454.81 632.691 1454.08 632.052C1453.35 631.412 1452.78 630.613 1452.38 629.659C1451.97 628.711 1451.78 627.602 1451.78 626.338C1451.78 625.624 1451.89 624.92 1452.13 624.221C1452.37 623.507 1452.75 622.833 1453.28 622.188C1453.83 621.549 1454.54 620.945 1455.39 620.375C1456.25 619.811 1457.3 619.317 1458.55 618.892C1459.81 618.474 1461.27 618.135 1462.93 617.878C1464.6 617.604 1466.5 617.439 1468.64 617.384V615.736C1468.64 613.85 1468.24 612.458 1467.43 611.561C1466.63 610.646 1465.46 610.188 1463.95 610.188C1462.85 610.188 1461.94 610.316 1461.21 610.572C1460.49 610.828 1459.86 611.122 1459.31 611.451C1458.76 611.762 1458.27 612.046 1457.81 612.303C1457.37 612.559 1456.88 612.687 1456.33 612.687C1455.85 612.687 1455.45 612.568 1455.12 612.33C1454.79 612.074 1454.53 611.781 1454.32 611.451L1453.12 609.281ZM1488.01 610.243C1488.89 608.558 1489.93 607.24 1491.14 606.287C1492.35 605.317 1493.77 604.832 1495.42 604.832C1496.71 604.832 1497.75 605.115 1498.54 605.683L1498.1 610.764C1498.01 611.094 1497.87 611.332 1497.69 611.479C1497.53 611.607 1497.3 611.671 1497.01 611.671C1496.73 611.671 1496.32 611.625 1495.77 611.534C1495.24 611.442 1494.72 611.396 1494.21 611.396C1493.46 611.396 1492.79 611.506 1492.21 611.726C1491.62 611.946 1491.09 612.266 1490.62 612.687C1490.16 613.09 1489.75 613.585 1489.38 614.17C1489.04 614.756 1488.71 615.425 1488.4 616.176V633.535H1481.62V605.353H1485.6C1486.29 605.353 1486.78 605.482 1487.05 605.738C1487.33 605.976 1487.51 606.416 1487.6 607.056L1488.01 610.243ZM1516.57 621.504C1514.61 621.594 1512.96 621.769 1511.63 622.024C1510.3 622.263 1509.23 622.573 1508.42 622.957C1507.62 623.342 1507.04 623.791 1506.7 624.306C1506.35 624.82 1506.17 625.375 1506.17 625.979C1506.17 627.172 1506.52 628.021 1507.22 628.536C1507.93 629.05 1508.85 629.305 1509.99 629.305C1511.37 629.305 1512.57 629.055 1513.58 628.561C1514.6 628.051 1515.6 627.282 1516.57 626.253V621.504ZM1501.05 609.281C1504.29 606.315 1508.18 604.832 1512.73 604.832C1514.38 604.832 1515.85 605.106 1517.14 605.656C1518.44 606.186 1519.54 606.938 1520.43 607.908C1521.33 608.86 1522 610.004 1522.46 611.341C1522.94 612.678 1523.17 614.143 1523.17 615.736V633.535H1520.1C1519.47 633.535 1518.97 633.445 1518.62 633.26C1518.27 633.06 1518 632.666 1517.8 632.077L1517.2 630.044C1516.48 630.688 1515.79 631.252 1515.11 631.747C1514.44 632.226 1513.73 632.626 1513 632.955C1512.27 633.285 1511.48 633.535 1510.65 633.7C1509.82 633.884 1508.91 633.974 1507.9 633.974C1506.71 633.974 1505.62 633.819 1504.61 633.505C1503.61 633.175 1502.74 632.691 1502.01 632.052C1501.27 631.412 1500.71 630.613 1500.31 629.659C1499.9 628.711 1499.7 627.602 1499.7 626.338C1499.7 625.624 1499.82 624.92 1500.06 624.221C1500.3 623.507 1500.68 622.833 1501.21 622.188C1501.76 621.549 1502.47 620.945 1503.32 620.375C1504.18 619.811 1505.23 619.317 1506.48 618.892C1507.74 618.474 1509.2 618.135 1510.87 617.878C1512.53 617.604 1514.43 617.439 1516.57 617.384V615.736C1516.57 613.85 1516.17 612.458 1515.36 611.561C1514.56 610.646 1513.39 610.188 1511.88 610.188C1510.78 610.188 1509.87 610.316 1509.14 610.572C1508.42 610.828 1507.79 611.122 1507.25 611.451C1506.7 611.762 1506.19 612.046 1505.74 612.303C1505.3 612.559 1504.8 612.687 1504.26 612.687C1503.78 612.687 1503.38 612.568 1503.05 612.33C1502.72 612.074 1502.46 611.781 1502.26 611.451L1501.05 609.281ZM1555.94 612.715C1557.33 612.715 1558.54 612.541 1559.56 612.193C1560.6 611.845 1561.45 611.369 1562.11 610.764C1562.79 610.142 1563.29 609.41 1563.62 608.567C1563.94 607.725 1564.11 606.8 1564.11 605.793C1564.11 603.779 1563.45 602.231 1562.11 601.151C1560.79 600.071 1558.77 599.53 1556.05 599.53H1551.33V612.715H1555.94ZM1574.91 633.535H1568.25C1566.99 633.535 1566.08 633.04 1565.51 632.052L1557.17 619.332C1556.87 618.857 1556.52 618.519 1556.13 618.318C1555.77 618.117 1555.22 618.016 1554.49 618.016H1551.33V633.535H1543.96V593.817H1556.05C1558.73 593.817 1561.04 594.101 1562.96 594.669C1564.9 595.218 1566.48 595.996 1567.7 597.003C1568.94 598.011 1569.86 599.219 1570.45 600.629C1571.03 602.021 1571.32 603.559 1571.32 605.244C1571.32 606.58 1571.12 607.844 1570.72 609.034C1570.34 610.224 1569.77 611.305 1569.02 612.275C1568.29 613.245 1567.37 614.097 1566.28 614.83C1565.2 615.562 1563.96 616.139 1562.57 616.56C1563.05 616.835 1563.49 617.164 1563.89 617.549C1564.29 617.915 1564.66 618.354 1564.99 618.867L1574.91 633.535ZM1594.43 616.203C1594.43 615.324 1594.3 614.5 1594.05 613.731C1593.81 612.943 1593.44 612.257 1592.95 611.671C1592.46 611.085 1591.82 610.627 1591.05 610.298C1590.31 609.949 1589.43 609.776 1588.42 609.776C1586.47 609.776 1584.92 610.334 1583.79 611.451C1582.67 612.568 1581.96 614.152 1581.65 616.203H1594.43ZM1581.51 620.296C1581.62 621.744 1581.88 622.997 1582.28 624.056C1582.68 625.1 1583.21 625.974 1583.87 626.668C1584.53 627.347 1585.31 627.857 1586.2 628.206C1587.12 628.536 1588.12 628.701 1589.22 628.701C1590.32 628.701 1591.26 628.571 1592.04 628.316C1592.85 628.061 1593.54 627.777 1594.13 627.462C1594.73 627.152 1595.25 626.868 1595.69 626.613C1596.15 626.358 1596.59 626.229 1597.01 626.229C1597.58 626.229 1597.99 626.438 1598.27 626.858L1600.21 629.33C1599.46 630.209 1598.62 630.953 1597.69 631.557C1596.76 632.141 1595.78 632.621 1594.76 632.985C1593.75 633.335 1592.72 633.58 1591.66 633.73C1590.62 633.874 1589.6 633.949 1588.62 633.949C1586.66 633.949 1584.84 633.625 1583.16 632.985C1581.48 632.326 1580.02 631.362 1578.77 630.099C1577.53 628.82 1576.55 627.242 1575.84 625.375C1575.13 623.492 1574.77 621.309 1574.77 618.837C1574.77 616.917 1575.08 615.113 1575.7 613.429C1576.32 611.726 1577.21 610.252 1578.36 609.007C1579.53 607.743 1580.95 606.745 1582.61 606.013C1584.29 605.28 1586.18 604.914 1588.29 604.914C1590.06 604.914 1591.7 605.198 1593.19 605.765C1594.69 606.333 1595.98 607.166 1597.06 608.265C1598.14 609.345 1598.98 610.682 1599.58 612.275C1600.21 613.85 1600.52 615.654 1600.52 617.686C1600.52 618.712 1600.41 619.407 1600.19 619.771C1599.97 620.121 1599.55 620.296 1598.93 620.296H1581.51ZM1622.76 610.847C1622.58 611.14 1622.39 611.35 1622.19 611.479C1621.99 611.588 1621.73 611.643 1621.42 611.643C1621.09 611.643 1620.73 611.552 1620.35 611.369C1619.98 611.185 1619.56 610.984 1619.06 610.764C1618.57 610.526 1618 610.316 1617.36 610.133C1616.74 609.949 1616 609.858 1615.14 609.858C1613.81 609.858 1612.76 610.142 1611.99 610.709C1611.24 611.277 1610.86 612.019 1610.86 612.934C1610.86 613.539 1611.06 614.052 1611.44 614.473C1611.84 614.876 1612.36 615.233 1613 615.544C1613.66 615.855 1614.4 616.139 1615.22 616.395C1616.05 616.633 1616.88 616.899 1617.72 617.192C1618.58 617.485 1619.42 617.824 1620.24 618.208C1621.06 618.573 1621.79 619.052 1622.43 619.636C1623.09 620.206 1623.61 620.89 1624 621.694C1624.4 622.503 1624.6 623.472 1624.6 624.605C1624.6 625.964 1624.35 627.217 1623.86 628.371C1623.38 629.505 1622.67 630.493 1621.72 631.337C1620.77 632.161 1619.59 632.811 1618.18 633.285C1616.79 633.745 1615.19 633.974 1613.36 633.974C1612.39 633.974 1611.44 633.884 1610.51 633.7C1609.59 633.535 1608.71 633.295 1607.84 632.985C1607.01 632.676 1606.22 632.306 1605.49 631.887C1604.77 631.467 1604.15 631.008 1603.6 630.513L1605.16 627.931C1605.36 627.622 1605.6 627.382 1605.87 627.217C1606.14 627.053 1606.49 626.968 1606.91 626.968C1607.34 626.968 1607.73 627.087 1608.09 627.327C1608.48 627.567 1608.92 627.822 1609.41 628.096C1609.9 628.371 1610.48 628.626 1611.14 628.865C1611.81 629.105 1612.67 629.22 1613.69 629.22C1614.49 629.22 1615.18 629.13 1615.74 628.945C1616.33 628.745 1616.8 628.491 1617.17 628.176C1617.55 627.867 1617.83 627.512 1617.99 627.107C1618.17 626.688 1618.26 626.253 1618.26 625.814C1618.26 625.155 1618.06 624.615 1617.66 624.196C1617.28 623.776 1616.76 623.407 1616.1 623.097C1615.46 622.788 1614.72 622.513 1613.88 622.273C1613.05 622.019 1612.21 621.744 1611.33 621.449C1610.47 621.155 1609.62 620.815 1608.78 620.43C1607.95 620.031 1607.22 619.526 1606.56 618.922C1605.92 618.318 1605.4 617.576 1604.99 616.697C1604.61 615.818 1604.42 614.756 1604.42 613.511C1604.42 612.358 1604.65 611.259 1605.1 610.215C1605.56 609.171 1606.23 608.265 1607.11 607.496C1608 606.708 1609.11 606.086 1610.42 605.628C1611.76 605.152 1613.29 604.914 1615.03 604.914C1616.97 604.914 1618.73 605.235 1620.32 605.875C1621.91 606.516 1623.24 607.359 1624.3 608.402L1622.76 610.847ZM1639.07 633.974C1636.62 633.974 1634.74 633.285 1633.42 631.912C1632.13 630.523 1631.48 628.611 1631.48 626.174V610.435H1628.6C1628.23 610.435 1627.93 610.316 1627.67 610.078C1627.41 609.84 1627.28 609.482 1627.28 609.007V606.315L1631.81 605.573L1633.23 597.882C1633.32 597.516 1633.5 597.232 1633.75 597.031C1634.01 596.83 1634.34 596.729 1634.74 596.729H1638.25V605.601H1645.76V610.435H1638.25V625.704C1638.25 626.583 1638.46 627.272 1638.88 627.767C1639.32 628.261 1639.92 628.506 1640.66 628.506C1641.09 628.506 1641.43 628.461 1641.7 628.371C1642 628.261 1642.25 628.151 1642.45 628.041C1642.67 627.931 1642.86 627.832 1643.02 627.737C1643.19 627.627 1643.35 627.572 1643.51 627.572C1643.72 627.572 1643.88 627.627 1644.01 627.737C1644.14 627.832 1644.28 627.976 1644.42 628.176L1646.45 631.472C1645.46 632.296 1644.33 632.92 1643.05 633.34C1641.77 633.764 1640.44 633.974 1639.07 633.974ZM1664.96 621.504C1663.01 621.594 1661.36 621.769 1660.03 622.024C1658.69 622.263 1657.62 622.573 1656.82 622.957C1656.01 623.342 1655.44 623.791 1655.09 624.306C1654.75 624.82 1654.57 625.375 1654.57 625.979C1654.57 627.172 1654.92 628.021 1655.61 628.536C1656.33 629.05 1657.25 629.305 1658.38 629.305C1659.77 629.305 1660.97 629.055 1661.98 628.561C1663 628.051 1663.99 627.282 1664.96 626.253V621.504ZM1649.44 609.281C1652.68 606.315 1656.57 604.832 1661.12 604.832C1662.77 604.832 1664.24 605.106 1665.54 605.656C1666.84 606.186 1667.93 606.938 1668.83 607.908C1669.72 608.86 1670.4 610.004 1670.86 611.341C1671.33 612.678 1671.57 614.143 1671.57 615.736V633.535H1668.5C1667.86 633.535 1667.36 633.445 1667.02 633.26C1666.67 633.06 1666.4 632.666 1666.2 632.077L1665.59 630.044C1664.88 630.688 1664.18 631.252 1663.51 631.747C1662.83 632.226 1662.13 632.626 1661.4 632.955C1660.67 633.285 1659.88 633.535 1659.04 633.7C1658.22 633.884 1657.3 633.974 1656.3 633.974C1655.11 633.974 1654.01 633.819 1653.01 633.505C1652 633.175 1651.13 632.691 1650.4 632.052C1649.67 631.412 1649.1 630.613 1648.7 629.659C1648.3 628.711 1648.1 627.602 1648.1 626.338C1648.1 625.624 1648.22 624.92 1648.45 624.221C1648.69 623.507 1649.08 622.833 1649.61 622.188C1650.15 621.549 1650.86 620.945 1651.72 620.375C1652.58 619.811 1653.63 619.317 1654.87 618.892C1656.13 618.474 1657.6 618.135 1659.26 617.878C1660.92 617.604 1662.82 617.439 1664.96 617.384V615.736C1664.96 613.85 1664.56 612.458 1663.75 611.561C1662.95 610.646 1661.79 610.188 1660.28 610.188C1659.18 610.188 1658.26 610.316 1657.53 610.572C1656.82 610.828 1656.19 611.122 1655.64 611.451C1655.09 611.762 1654.59 612.046 1654.13 612.303C1653.69 612.559 1653.2 612.687 1652.65 612.687C1652.17 612.687 1651.78 612.568 1651.45 612.33C1651.12 612.074 1650.85 611.781 1650.65 611.451L1649.44 609.281ZM1702.19 605.353V633.535H1698.05C1697.15 633.535 1696.58 633.12 1696.35 632.296L1695.88 630.044C1694.73 631.218 1693.46 632.171 1692.07 632.901C1690.68 633.615 1689.05 633.974 1687.16 633.974C1685.63 633.974 1684.26 633.72 1683.08 633.205C1681.91 632.676 1680.92 631.932 1680.12 630.978C1679.31 630.029 1678.7 628.9 1678.28 627.602C1677.87 626.283 1677.67 624.835 1677.67 623.262V605.353H1684.45V623.262C1684.45 624.985 1684.84 626.318 1685.63 627.272C1686.43 628.206 1687.63 628.671 1689.22 628.671C1690.39 628.671 1691.48 628.416 1692.51 627.902C1693.53 627.372 1694.5 626.648 1695.42 625.734V605.353H1702.19ZM1715.29 610.243C1716.17 608.558 1717.21 607.24 1718.42 606.287C1719.62 605.317 1721.05 604.832 1722.7 604.832C1723.99 604.832 1725.03 605.115 1725.82 605.683L1725.38 610.764C1725.29 611.094 1725.15 611.332 1724.97 611.479C1724.8 611.607 1724.58 611.671 1724.29 611.671C1724.01 611.671 1723.6 611.625 1723.05 611.534C1722.52 611.442 1722 611.396 1721.49 611.396C1720.74 611.396 1720.07 611.506 1719.49 611.726C1718.9 611.946 1718.37 612.266 1717.9 612.687C1717.44 613.09 1717.03 613.585 1716.66 614.17C1716.31 614.756 1715.99 615.425 1715.68 616.176V633.535H1708.9V605.353H1712.88C1713.57 605.353 1714.06 605.482 1714.33 605.738C1714.6 605.976 1714.79 606.416 1714.88 607.056L1715.29 610.243ZM1743.84 621.504C1741.89 621.594 1740.24 621.769 1738.91 622.024C1737.58 622.263 1736.51 622.573 1735.7 622.957C1734.9 623.342 1734.32 623.791 1733.97 624.306C1733.63 624.82 1733.45 625.375 1733.45 625.979C1733.45 627.172 1733.8 628.021 1734.5 628.536C1735.21 629.05 1736.13 629.305 1737.26 629.305C1738.65 629.305 1739.85 629.055 1740.86 628.561C1741.88 628.051 1742.88 627.282 1743.84 626.253V621.504ZM1728.32 609.281C1731.56 606.315 1735.45 604.832 1740 604.832C1741.65 604.832 1743.13 605.106 1744.42 605.656C1745.72 606.186 1746.81 606.938 1747.71 607.908C1748.61 608.86 1749.28 610.004 1749.74 611.341C1750.21 612.678 1750.45 614.143 1750.45 615.736V633.535H1747.38C1746.74 633.535 1746.25 633.445 1745.9 633.26C1745.55 633.06 1745.28 632.666 1745.08 632.077L1744.48 630.044C1743.76 630.688 1743.07 631.252 1742.39 631.747C1741.71 632.226 1741.01 632.626 1740.28 632.955C1739.55 633.285 1738.76 633.535 1737.92 633.7C1737.1 633.884 1736.19 633.974 1735.18 633.974C1733.99 633.974 1732.9 633.819 1731.89 633.505C1730.89 633.175 1730.02 632.691 1729.29 632.052C1728.55 631.412 1727.99 630.613 1727.59 629.659C1727.18 628.711 1726.98 627.602 1726.98 626.338C1726.98 625.624 1727.1 624.92 1727.34 624.221C1727.58 623.507 1727.96 622.833 1728.49 622.188C1729.04 621.549 1729.75 620.945 1730.6 620.375C1731.46 619.811 1732.51 619.317 1733.75 618.892C1735.01 618.474 1736.48 618.135 1738.14 617.878C1739.81 617.604 1741.7 617.439 1743.84 617.384V615.736C1743.84 613.85 1743.44 612.458 1742.64 611.561C1741.83 610.646 1740.67 610.188 1739.16 610.188C1738.06 610.188 1737.15 610.316 1736.42 610.572C1735.7 610.828 1735.07 611.122 1734.52 611.451C1733.97 611.762 1733.47 612.046 1733.02 612.303C1732.58 612.559 1732.08 612.687 1731.53 612.687C1731.06 612.687 1730.66 612.568 1730.33 612.33C1730 612.074 1729.74 611.781 1729.53 611.451L1728.32 609.281ZM1763.17 608.814C1763.73 608.246 1764.33 607.725 1764.95 607.249C1765.59 606.754 1766.26 606.342 1766.95 606.013C1767.66 605.665 1768.42 605.399 1769.22 605.216C1770.03 605.015 1770.91 604.914 1771.86 604.914C1773.39 604.914 1774.76 605.18 1775.94 605.71C1777.13 606.223 1778.12 606.955 1778.91 607.908C1779.71 608.842 1780.31 609.968 1780.71 611.286C1781.13 612.586 1781.34 614.024 1781.34 615.599V633.535H1774.57V615.599C1774.57 613.877 1774.18 612.55 1773.39 611.616C1772.61 610.664 1771.41 610.188 1769.8 610.188C1768.63 610.188 1767.53 610.453 1766.51 610.984C1765.49 611.515 1764.52 612.239 1763.61 613.154V633.535H1756.83V605.353H1760.97C1761.85 605.353 1762.42 605.765 1762.7 606.589L1763.17 608.814ZM1796.79 633.974C1794.34 633.974 1792.46 633.285 1791.14 631.912C1789.84 630.523 1789.19 628.611 1789.19 626.174V610.435H1786.31C1785.95 610.435 1785.64 610.316 1785.38 610.078C1785.13 609.84 1785 609.482 1785 609.007V606.315L1789.52 605.573L1790.95 597.882C1791.04 597.516 1791.21 597.232 1791.47 597.031C1791.73 596.83 1792.06 596.729 1792.46 596.729H1795.96V605.601H1803.48V610.435H1795.96V625.704C1795.96 626.583 1796.17 627.272 1796.6 627.767C1797.04 628.261 1797.63 628.506 1798.38 628.506C1798.8 628.506 1799.15 628.461 1799.42 628.371C1799.71 628.261 1799.96 628.151 1800.16 628.041C1800.38 627.931 1800.57 627.832 1800.74 627.737C1800.9 627.627 1801.06 627.572 1801.23 627.572C1801.43 627.572 1801.6 627.627 1801.72 627.737C1801.85 627.832 1801.99 627.976 1802.14 628.176L1804.17 631.472C1803.18 632.296 1802.04 632.92 1800.77 633.34C1799.48 633.764 1798.16 633.974 1796.79 633.974ZM1825.72 616.203C1825.72 615.324 1825.6 614.5 1825.34 613.731C1825.1 612.943 1824.73 612.257 1824.24 611.671C1823.75 611.085 1823.12 610.627 1822.35 610.298C1821.6 609.949 1820.73 609.776 1819.72 609.776C1817.77 609.776 1816.22 610.334 1815.08 611.451C1813.97 612.568 1813.26 614.152 1812.94 616.203H1825.72ZM1812.81 620.296C1812.92 621.744 1813.17 622.997 1813.58 624.056C1813.98 625.1 1814.51 625.974 1815.17 626.668C1815.83 627.347 1816.6 627.857 1817.5 628.206C1818.41 628.536 1819.42 628.701 1820.51 628.701C1821.61 628.701 1822.55 628.571 1823.34 628.316C1824.14 628.061 1824.84 627.777 1825.42 627.462C1826.03 627.152 1826.54 626.868 1826.98 626.613C1827.44 626.358 1827.88 626.229 1828.3 626.229C1828.87 626.229 1829.29 626.438 1829.56 626.858L1831.51 629.33C1830.76 630.209 1829.92 630.953 1828.99 631.557C1828.06 632.141 1827.08 632.621 1826.05 632.985C1825.05 633.335 1824.02 633.58 1822.96 633.73C1821.91 633.874 1820.9 633.949 1819.91 633.949C1817.95 633.949 1816.14 633.625 1814.46 632.985C1812.78 632.326 1811.31 631.362 1810.07 630.099C1808.83 628.82 1807.84 627.242 1807.13 625.375C1806.42 623.492 1806.06 621.309 1806.06 618.837C1806.06 616.917 1806.37 615.113 1807 613.429C1807.62 611.726 1808.5 610.252 1809.65 609.007C1810.83 607.743 1812.24 606.745 1813.91 606.013C1815.59 605.28 1817.48 604.914 1819.58 604.914C1821.35 604.914 1822.99 605.198 1824.49 605.765C1825.99 606.333 1827.28 607.166 1828.35 608.265C1829.44 609.345 1830.27 610.682 1830.88 612.275C1831.5 613.85 1831.81 615.654 1831.81 617.686C1831.81 618.712 1831.7 619.407 1831.48 619.771C1831.26 620.121 1830.84 620.296 1830.22 620.296H1812.81ZM1854.06 610.847C1853.87 611.14 1853.68 611.35 1853.48 611.479C1853.28 611.588 1853.03 611.643 1852.71 611.643C1852.38 611.643 1852.03 611.552 1851.65 611.369C1851.28 611.185 1850.85 610.984 1850.35 610.764C1849.86 610.526 1849.3 610.316 1848.65 610.133C1848.04 609.949 1847.29 609.858 1846.44 609.858C1845.1 609.858 1844.05 610.142 1843.28 610.709C1842.53 611.277 1842.16 612.019 1842.16 612.934C1842.16 613.539 1842.35 614.052 1842.73 614.473C1843.14 614.876 1843.66 615.233 1844.3 615.544C1844.96 615.855 1845.69 616.139 1846.52 616.395C1847.34 616.633 1848.17 616.899 1849.01 617.192C1849.87 617.485 1850.71 617.824 1851.54 618.208C1852.36 618.573 1853.09 619.052 1853.73 619.636C1854.39 620.206 1854.91 620.89 1855.29 621.694C1855.69 622.503 1855.89 623.472 1855.89 624.605C1855.89 625.964 1855.65 627.217 1855.16 628.371C1854.68 629.505 1853.97 630.493 1853.02 631.337C1852.06 632.161 1850.89 632.811 1849.48 633.285C1848.09 633.745 1846.48 633.974 1844.65 633.974C1843.68 633.974 1842.73 633.884 1841.8 633.7C1840.89 633.535 1840 633.295 1839.14 632.985C1838.3 632.676 1837.52 632.306 1836.78 631.887C1836.07 631.467 1835.44 631.008 1834.89 630.513L1836.46 627.931C1836.65 627.622 1836.89 627.382 1837.17 627.217C1837.44 627.053 1837.79 626.968 1838.21 626.968C1838.63 626.968 1839.02 627.087 1839.39 627.327C1839.77 627.567 1840.21 627.822 1840.7 628.096C1841.2 628.371 1841.77 628.626 1842.43 628.865C1843.11 629.105 1843.96 629.22 1844.98 629.22C1845.79 629.22 1846.47 629.13 1847.04 628.945C1847.62 628.745 1848.1 628.491 1848.46 628.176C1848.85 627.867 1849.12 627.512 1849.29 627.107C1849.47 626.688 1849.56 626.253 1849.56 625.814C1849.56 625.155 1849.36 624.615 1848.96 624.196C1848.57 623.776 1848.05 623.407 1847.39 623.097C1846.75 622.788 1846.02 622.513 1845.17 622.273C1844.35 622.019 1843.5 621.744 1842.62 621.449C1841.76 621.155 1840.92 620.815 1840.07 620.43C1839.25 620.031 1838.51 619.526 1837.85 618.922C1837.21 618.318 1836.69 617.576 1836.29 616.697C1835.91 615.818 1835.71 614.756 1835.71 613.511C1835.71 612.358 1835.94 611.259 1836.4 610.215C1836.86 609.171 1837.52 608.265 1838.4 607.496C1839.3 606.708 1840.4 606.086 1841.72 605.628C1843.06 605.152 1844.59 604.914 1846.33 604.914C1848.27 604.914 1850.03 605.235 1851.62 605.875C1853.21 606.516 1854.53 607.359 1855.59 608.402L1854.06 610.847Z" fill="#D9D9D9"/>
<defs>
<clipPath id="clip0_35_107">
<rect width="575.33" height="575.2" fill="white" transform="translate(0.397705 71.8999)"/>
</clipPath>
</defs>
</svg>
